<svg xmlns="http://www.w3.org/2000/svg" viewBox="0 0 100 100" width="100" height="100" role="img" aria-label="Helpin">
  <rect width="100" height="100" fill="#FFFFFF"/>
  <circle cx="50" cy="50" r="49" fill="#FFFFFF"/>
  <defs><clipPath id="clip_auto_TL"><rect x="21.00" y="21.00" width="26.00" height="26.00"/></clipPath><clipPath id="clip_auto_TR"><rect x="53.00" y="21.00" width="26.00" height="26.00"/></clipPath><clipPath id="clip_auto_BR"><rect x="53.00" y="53.00" width="26.00" height="26.00"/></clipPath><clipPath id="clip_auto_BL"><rect x="21.00" y="53.00" width="26.00" height="26.00"/></clipPath><mask id="weave_auto"><rect x="20.00" y="25.50" width="60.00" height="17.00" rx="8.50" fill="#fff"/><rect x="20.00" y="57.50" width="60.00" height="17.00" rx="8.50" fill="#fff"/><rect x="25.50" y="20.00" width="17.00" height="60.00" rx="8.50" fill="#fff"/><rect x="57.50" y="20.00" width="17.00" height="60.00" rx="8.50" fill="#fff"/><g clip-path="url(#clip_auto_TL)"><rect x="16.80" y="22.30" width="66.40" height="23.40" rx="11.70" fill="#000"/><rect x="20.00" y="25.50" width="60.00" height="17.00" rx="8.50" fill="#fff"/></g><g clip-path="url(#clip_auto_TR)"><rect x="54.30" y="16.80" width="23.40" height="66.40" rx="11.70" fill="#000"/><rect x="57.50" y="20.00" width="17.00" height="60.00" rx="8.50" fill="#fff"/></g><g clip-path="url(#clip_auto_BR)"><rect x="16.80" y="54.30" width="66.40" height="23.40" rx="11.70" fill="#000"/><rect x="20.00" y="57.50" width="60.00" height="17.00" rx="8.50" fill="#fff"/></g><g clip-path="url(#clip_auto_BL)"><rect x="22.30" y="16.80" width="23.40" height="66.40" rx="11.70" fill="#000"/><rect x="25.50" y="20.00" width="17.00" height="60.00" rx="8.50" fill="#fff"/></g></mask></defs>
  <g transform="translate(-12.5 -12.5) scale(1.25)" mask="url(#weave_auto)"><rect x="20.00" y="25.50" width="60.00" height="17.00" rx="8.50" fill="#000000"/><rect x="20.00" y="57.50" width="60.00" height="17.00" rx="8.50" fill="#000000"/><rect x="25.50" y="20.00" width="17.00" height="60.00" rx="8.50" fill="#000000"/><rect x="57.50" y="20.00" width="17.00" height="60.00" rx="8.50" fill="#000000"/></g>
</svg>
